<svg xmlns="http://www.w3.org/2000/svg" version="1.1" xmlns:xlink="http://www.w3.org/1999/xlink" width="84" height="84"><svg width="84" height="84" viewBox="0 0 84 84" fill="none" xmlns="http://www.w3.org/2000/svg">
<rect width="84" height="84" fill="black"></rect>
<path fill-rule="evenodd" clip-rule="evenodd" d="M25.5997 46.8281V52.902H24.2331V48.6331L22.4054 51.6872L20.5688 48.6331V52.902H19.2109V46.8281H20.9702L22.4054 49.3005L23.8058 46.8281H25.5997Z" fill="white"></path>
<path fill-rule="evenodd" clip-rule="evenodd" d="M26.7578 52.902H28.116V46.8281H26.7578V52.902Z" fill="white"></path>
<path fill-rule="evenodd" clip-rule="evenodd" d="M30.3428 48.0941H28.7031V46.8281H33.3492V48.0941H31.7096V52.902H30.3428V48.0941Z" fill="white"></path>
<path fill-rule="evenodd" clip-rule="evenodd" d="M33.8518 52.8168V51.5507C34.1336 51.6023 34.8172 51.7218 35.6541 51.7218C36.3545 51.7218 36.7046 51.6277 36.7046 51.2426C36.7046 50.7978 36.4056 50.7379 35.4235 50.2847C34.4668 49.8484 33.7578 49.4633 33.7578 48.4366C33.7578 47.1708 34.5268 46.7344 36.0468 46.7344C36.8243 46.7344 37.388 46.803 37.738 46.8456V48.1115C37.3965 48.0775 36.773 47.9921 36.0811 47.9921C35.2612 47.9921 35.0987 48.0775 35.0987 48.4113C35.0987 48.7532 35.543 48.9246 36.2093 49.2239C37.2087 49.6773 38.0285 50.0536 38.0285 51.2085C38.0285 52.4148 37.2769 52.9793 35.6541 52.9793C35.0138 52.9793 34.4155 52.9108 33.8518 52.8168Z" fill="white"></path>
<path fill-rule="evenodd" clip-rule="evenodd" d="M38.8516 50.8491V46.8281H40.2097V50.7974C40.2097 51.4902 40.6198 51.73 41.2687 51.73C41.918 51.73 42.3363 51.4902 42.3363 50.7974V46.8281H43.6945V50.8491C43.6945 52.3201 42.7295 52.9874 41.2687 52.9874C39.808 52.9874 38.8516 52.3201 38.8516 50.8491Z" fill="white"></path>
<path fill-rule="evenodd" clip-rule="evenodd" d="M47.3892 51.7557C47.9358 51.7557 48.1577 51.5589 48.1577 51.0286C48.1577 50.558 47.9526 50.3613 47.4485 50.3613H46.2019V51.7557H47.3892ZM47.2952 49.2833C47.8415 49.2833 48.0385 48.9926 48.0385 48.5904C48.0385 48.1027 47.799 47.9746 47.2952 47.9746H46.2019V49.2833H47.2952ZM44.8438 46.8281H47.4914C48.7301 46.8281 49.4136 47.2815 49.4136 48.3935C49.4136 49.2749 48.9095 49.5482 48.4481 49.7284C48.9948 49.8907 49.5672 50.1903 49.5672 51.2083C49.5672 52.2688 48.9266 52.902 47.5857 52.902H44.8438V46.8281Z" fill="white"></path>
<path fill-rule="evenodd" clip-rule="evenodd" d="M50.3906 52.902H51.7488V46.8281H50.3906V52.902Z" fill="white"></path>
<path fill-rule="evenodd" clip-rule="evenodd" d="M52.7505 52.8168V51.5507C53.0323 51.6023 53.716 51.7218 54.5528 51.7218C55.2529 51.7218 55.6031 51.6277 55.6031 51.2426C55.6031 50.7978 55.3044 50.7379 54.3223 50.2847C53.3655 49.8484 52.6562 49.4633 52.6562 48.4366C52.6562 47.1708 53.4255 46.7344 54.9455 46.7344C55.723 46.7344 56.2868 46.803 56.6367 46.8456V48.1115C56.295 48.0775 55.6718 47.9921 54.9799 47.9921C54.1597 47.9921 53.9972 48.0775 53.9972 48.4113C53.9972 48.7532 54.4418 48.9246 55.108 49.2239C56.1075 49.6773 56.9272 50.0536 56.9272 51.2085C56.9272 52.4148 56.1754 52.9793 54.5528 52.9793C53.9122 52.9793 53.314 52.9108 52.7505 52.8168Z" fill="white"></path>
<path fill-rule="evenodd" clip-rule="evenodd" d="M62.517 46.8281V52.902H61.1592V50.4894H59.0063V52.902H57.6484V46.8281H59.0063V49.2234H61.1592V46.8281H62.517Z" fill="white"></path>
<path fill-rule="evenodd" clip-rule="evenodd" d="M63.6172 52.902H64.9753V46.8281H63.6172V52.902Z" fill="white"></path>
<path fill-rule="evenodd" clip-rule="evenodd" d="M31.9828 54.9844V61.0583H30.6159V56.7895L28.7882 59.8435L26.9516 56.7895V61.0583H25.5938V54.9844H27.353L28.7882 57.4565L30.1889 54.9844H31.9828Z" fill="white"></path>
<path fill-rule="evenodd" clip-rule="evenodd" d="M36.7324 58.0209C36.7324 56.7802 36.5188 56.156 35.5282 56.156C34.5371 56.156 34.3238 56.7802 34.3238 58.0209C34.3238 59.2699 34.5371 59.9027 35.5282 59.9027C36.5188 59.9027 36.7324 59.2699 36.7324 58.0209ZM32.9141 58.0209C32.9141 55.8478 33.7428 54.8984 35.5282 54.8984C37.3134 54.8984 38.1418 55.8478 38.1418 58.0209C38.1418 60.1938 37.3134 61.1433 35.5282 61.1433C33.7428 61.1433 32.9141 60.1938 32.9141 58.0209Z" fill="white"></path>
<path fill-rule="evenodd" clip-rule="evenodd" d="M40.0074 56.2504H38.3672V54.9844H43.0139V56.2504H41.374V61.0583H40.0074V56.2504Z" fill="white"></path>
<path fill-rule="evenodd" clip-rule="evenodd" d="M47.0446 58.0209C47.0446 56.7802 46.831 56.156 45.84 56.156C44.8489 56.156 44.6357 56.7802 44.6357 58.0209C44.6357 59.2699 44.8489 59.9027 45.84 59.9027C46.831 59.9027 47.0446 59.2699 47.0446 58.0209ZM43.2266 58.0209C43.2266 55.8478 44.0548 54.8984 45.84 54.8984C47.6252 54.8984 48.4537 55.8478 48.4537 58.0209C48.4537 60.1938 47.6252 61.1433 45.84 61.1433C44.0548 61.1433 43.2266 60.1938 43.2266 58.0209Z" fill="white"></path>
<path fill-rule="evenodd" clip-rule="evenodd" d="M51.7574 57.7046C52.3721 57.7046 52.5602 57.3969 52.5602 56.9348C52.5602 56.4641 52.3721 56.1564 51.7574 56.1564H50.741V57.7046H51.7574ZM49.3828 54.9844H51.8426C53.1412 54.9844 53.9696 55.4718 53.9696 56.9348C53.9696 57.8756 53.5 58.4835 52.7228 58.6714L54.2172 61.0583H52.6285L51.3473 58.885H50.741V61.0583H49.3828V54.9844Z" fill="white"></path>
<path fill-rule="evenodd" clip-rule="evenodd" d="M54.7974 60.9809V59.7147C55.0792 59.7661 55.7626 59.8859 56.5997 59.8859C57.2998 59.8859 57.65 59.7916 57.65 59.4067C57.65 58.9619 57.3512 58.9021 56.3692 58.4487C55.4124 58.0123 54.7031 57.6272 54.7031 56.6007C54.7031 55.3347 55.4721 54.8984 56.9924 54.8984C57.7699 54.8984 58.3336 54.9669 58.6836 55.0094V56.2757C58.3419 56.2414 57.7186 56.1562 57.0267 56.1562C56.2065 56.1562 56.0444 56.2414 56.0444 56.575C56.0444 56.9172 56.4885 57.0886 57.1546 57.3881C58.154 57.8412 58.9738 58.2177 58.9738 59.3728C58.9738 60.5785 58.2222 61.1432 56.5997 61.1432C55.9591 61.1432 55.3612 61.0749 54.7974 60.9809Z" fill="white"></path>
<path fill-rule="evenodd" clip-rule="evenodd" d="M36.2266 22.0774L42.0359 32.1548L47.8449 22.0774L42.0359 12L36.2266 22.0774Z" fill="#ED0000"></path>
<path fill-rule="evenodd" clip-rule="evenodd" d="M53.6574 32.1406L42.0391 32.1409L47.8484 42.2184H59.4668L53.6574 32.1406Z" fill="#ED0000"></path>
<path fill-rule="evenodd" clip-rule="evenodd" d="M30.4106 32.1406L42.0289 32.1409L36.2199 42.2184H24.6016L30.4106 32.1406Z" fill="#ED0000"></path>
<path fill-rule="evenodd" clip-rule="evenodd" d="M11 70.3475H12.8785C14.168 70.3475 14.9749 69.6052 14.9749 67.9958C14.9749 66.333 14.1745 65.6443 12.9048 65.6443H11V70.3475ZM11.8335 69.5656V66.4256H12.9181C13.7117 66.4256 14.1084 66.8964 14.1084 67.976C14.1084 69.0623 13.6984 69.5656 12.8918 69.5656H11.8335ZM15.7024 70.3475H16.529V67.9163C16.8068 67.8367 17.1443 67.7572 17.7924 67.7572V67.0355C17.1375 67.0355 16.754 67.2078 16.4693 67.3268V67.1016H15.7024V70.3475ZM18.8241 66.6313L19.406 66.0415L18.8241 65.4453L18.2485 66.0415L18.8241 66.6313ZM18.414 70.3475H19.2407V67.1016H18.414V70.3475ZM21.1585 70.3475H21.9524C22.3291 69.7643 23.1362 68.9433 23.1955 67.1016H22.3688C22.3029 68.4462 21.8399 69.175 21.5553 69.5854C21.271 69.175 20.808 68.4462 20.7419 67.1016H19.9153C19.9747 68.9433 20.7818 69.7643 21.1585 70.3475ZM25.4508 70.4134C26.0726 70.4134 26.4163 70.3537 26.6148 70.3011V69.6185C26.3965 69.6718 26.0133 69.7444 25.5036 69.7444C24.9084 69.7444 24.5184 69.5656 24.485 68.9896H26.7999C26.8064 68.9099 26.8064 68.7641 26.8064 68.6516C26.8064 67.6117 26.4693 67.0355 25.3056 67.0355C24.1811 67.0355 23.6585 67.5981 23.6585 68.7113C23.6585 69.8504 24.3001 70.4134 25.4508 70.4134ZM24.485 68.4527C24.5184 67.9496 24.7035 67.6713 25.2787 67.6713C25.9536 67.6713 25.9997 67.9893 26.0065 68.4527H24.485ZM29.7033 72.0035L31.079 70.0957C31.2375 69.877 32.1637 68.718 32.1637 67.1016H31.3367C31.3367 68.3801 30.7019 69.3208 30.5037 69.6052C30.2722 69.2742 29.6242 68.3602 29.6242 67.1016H28.7971C28.85 68.8105 29.6242 69.6648 30.0207 70.248L29.108 71.5396L29.7033 72.0035ZM34.313 70.4134C35.4306 70.4134 36.0259 69.8239 36.0259 68.7246C36.0259 67.6049 35.4306 67.0355 34.313 67.0355C33.2017 67.0355 32.5998 67.6049 32.5998 68.7246C32.5998 69.8239 33.2017 70.4134 34.313 70.4134ZM34.313 69.6916C33.6714 69.6916 33.4532 69.3536 33.4532 68.718C33.4532 68.0618 33.6714 67.7439 34.313 67.7439C34.9544 67.7439 35.1794 68.0618 35.1794 68.718C35.1794 69.3536 34.9544 69.6916 34.313 69.6916ZM39.842 67.1016H39.0153V69.5325C38.7377 69.612 38.4004 69.6916 38.0694 69.6916C37.7916 69.6916 37.5206 69.5723 37.5206 69.155V67.1016H36.694V69.1948C36.694 70.0559 37.1964 70.4134 37.752 70.4134C38.4066 70.4134 38.7904 70.2415 39.0749 70.122V70.3475H39.842V67.1016ZM40.7416 70.3475H41.5681V67.9163C41.846 67.8367 42.1834 67.7572 42.8315 67.7572V67.0355C42.1766 67.0355 41.7931 67.2078 41.5088 67.3268V67.1016H40.7416V70.3475ZM47.249 65.7567L47.1832 65.6443H45.9728L45.92 65.75C45.4372 66.7238 44.6172 67.87 44.6172 69.7843V70.3408H45.4638V69.8702C45.4638 69.6052 45.4768 69.3671 45.5034 69.1416H47.7191C47.7453 69.3671 47.7586 69.612 47.7586 69.877V70.3475H48.6048V69.8304C48.6048 67.9163 47.7852 66.684 47.249 65.7567ZM45.6223 68.4132C45.847 67.4791 46.2642 66.8964 46.5881 66.2272C46.9188 66.9094 47.3482 67.4989 47.5865 68.4132H45.6223ZM49.4054 70.3475H50.2321V67.9229C50.424 67.8301 50.8733 67.7637 51.1447 67.7637C51.4492 67.7637 51.6603 67.9096 51.6603 68.3204V70.3475H52.4873V68.2011C52.4873 68.1015 52.4805 68.0091 52.4607 67.9229C52.6394 67.8234 53.1026 67.7572 53.38 67.7637C53.6779 67.7708 53.9026 67.9096 53.9026 68.3204V70.3475H54.7231V68.2077C54.7231 67.3666 54.2333 67.0355 53.6183 67.0355C53.1753 67.0355 52.5269 67.1679 52.2163 67.3729C52.0312 67.1412 51.7135 67.0355 51.3831 67.0355C50.9203 67.0355 50.3446 67.2209 50.173 67.3268V67.1016H49.4054V70.3475ZM57.553 67.0355C57.0507 67.0355 56.6804 67.1877 56.4619 67.2672V65.5115H55.6353V67.2737L55.6417 70.3475H56.4619V70.1287C56.6672 70.2215 56.9645 70.4134 57.553 70.4134C58.4533 70.4134 58.9889 69.7314 58.9889 68.7246C58.9889 67.7174 58.4533 67.0355 57.553 67.0355ZM57.3682 69.6848C56.9645 69.6848 56.6937 69.5922 56.4688 69.5392V67.8963C56.7005 67.8367 56.9645 67.7508 57.3682 67.7508C57.9434 67.7508 58.1619 68.1282 58.1619 68.7246C58.1619 69.3208 57.9301 69.6848 57.3682 69.6848ZM60.1458 66.6313L60.728 66.0415L60.1458 65.4453L59.5706 66.0415L60.1458 66.6313ZM59.736 70.3475H60.5627V67.1016H59.736V70.3475ZM63.0432 70.4134C63.3007 70.4134 63.5787 70.3873 63.7307 70.3608V69.612C63.5984 69.632 63.3934 69.645 63.2079 69.645C62.7849 69.645 62.5865 69.5789 62.5865 69.1813V67.7837H63.6315V67.1016H62.5865V66.2074H61.7663V67.1016H61.1712V67.7837H61.7663V69.3736C61.7663 70.142 62.2091 70.4134 63.0432 70.4134ZM64.8219 66.6313L65.4036 66.0415L64.8219 65.4453L64.2465 66.0415L64.8219 66.6313ZM64.4118 70.3475H65.2389V67.1016H64.4118V70.3475ZM67.6919 70.4134C68.8099 70.4134 69.4051 69.8239 69.4051 68.7246C69.4051 67.6049 68.8099 67.0355 67.6919 67.0355C66.5812 67.0355 65.9788 67.6049 65.9788 68.7246C65.9788 69.8239 66.5812 70.4134 67.6919 70.4134ZM67.6919 69.6916C67.0506 69.6916 66.8324 69.3536 66.8324 68.718C66.8324 68.0618 67.0506 67.7439 67.6919 67.7439C68.3336 67.7439 68.5583 68.0618 68.5583 68.718C68.5583 69.3536 68.3336 69.6916 67.6919 69.6916ZM70.1061 70.3475H70.9328V67.9163C71.2107 67.8367 71.5478 67.7572 71.8787 67.7572C72.1565 67.7572 72.4275 67.8765 72.4275 68.2939V70.3475H73.2542V68.2541C73.2542 67.3929 72.7517 67.0355 72.1964 67.0355C71.541 67.0355 71.1578 67.2078 70.8732 67.3268V67.1016H70.1061V70.3475Z" fill="white"></path>
</svg><style>@media (prefers-color-scheme: light) { :root { filter: none; } }
@media (prefers-color-scheme: dark) { :root { filter: none; } }
</style></svg>